<svg viewBox="0 0 183 200" fill="none" xmlns="http://www.w3.org/2000/svg">
<path fill-rule="evenodd" clip-rule="evenodd" d="M31.0918 21.3272C31.6799 19.6608 32 17.8678 32 16C32 7.16344 24.8367 0 16 0C7.16333 0 0 7.16344 0 16C0 24.8366 7.16333 32 16 32C19.3284 32 22.4192 30.9838 24.9795 29.2447L98.0879 88.2292C91.7678 96.2957 88 106.458 88 117.5C88 129.03 92.1084 139.601 98.9412 147.828L76.7632 170.006C74.4641 168.728 71.8171 168 69 168C60.1633 168 53 175.163 53 184C53 192.837 60.1633 200 69 200C77.8367 200 85 192.837 85 184C85 181.629 84.4841 179.378 83.5583 177.353L106.101 154.811C114.188 161.192 124.399 165 135.5 165C161.734 165 183 143.734 183 117.5C183 92.7841 164.123 72.4772 140 70.2104V33.4959C146.901 31.7198 152 25.4554 152 18C152 9.16344 144.837 2 136 2C127.163 2 120 9.16344 120 18C120 24.7148 124.136 30.4635 130 32.837V70.315C120.577 71.4015 111.994 75.2455 105.077 81.0195L31.0918 21.3272ZM135.5 155C156.211 155 173 138.211 173 117.5C173 96.7893 156.211 80 135.5 80C114.789 80 98 96.7893 98 117.5C98 138.211 114.789 155 135.5 155Z" fill="white"/>
</svg>
